<?xml version="1.0" encoding="UTF-8" standalone="no"?>
<!-- Generator: Adobe Illustrator 27.5.0, SVG Export Plug-In . SVG Version: 6.00 Build 0)  -->

<svg
   version="1.1"
   id="Layer_1"
   x="0px"
   y="0px"
   viewBox="0 0 1200 1200"
   style="enable-background:new 0 0 1200 1200;"
   xml:space="preserve"
   sodipodi:docname="SV-Icon-White (copia).svg"
   inkscape:version="1.3 (0e150ed, 2023-07-21)"
   xmlns:inkscape="http://www.inkscape.org/namespaces/inkscape"
   xmlns:sodipodi="http://sodipodi.sourceforge.net/DTD/sodipodi-0.dtd"
   xmlns="http://www.w3.org/2000/svg"
   xmlns:svg="http://www.w3.org/2000/svg"><defs
   id="defs21" /><sodipodi:namedview
   id="namedview21"
   pagecolor="#505050"
   bordercolor="#eeeeee"
   borderopacity="1"
   inkscape:showpageshadow="0"
   inkscape:pageopacity="0"
   inkscape:pagecheckerboard="0"
   inkscape:deskcolor="#505050"
   inkscape:zoom="0.67083333"
   inkscape:cx="532.91925"
   inkscape:cy="488.19876"
   inkscape:window-width="1920"
   inkscape:window-height="1011"
   inkscape:window-x="0"
   inkscape:window-y="0"
   inkscape:window-maximized="1"
   inkscape:current-layer="Layer_1" />&#10;<style
   type="text/css"
   id="style1">&#10;	.st0{fill:#FFFFFF;}&#10;</style>&#10;<g
   id="g21"
   transform="matrix(1.2704732,0,0,1.2704732,-162.27755,-162.27755)">&#10;	<g
   id="g20">&#10;		<g
   id="g19">&#10;			<path
   class="st0"
   d="m 932.65,685.87 h 53.76 v -42.93 h -45.7 -43.28 -87.05 -38.63 -5.43 c -15.57,60.26 -63.11,107.8 -123.37,123.37 v 5.43 38.63 87.05 43.28 45.7 h 42.93 v -53.76 c 31.51,-8.11 61.23,-20.64 88.55,-36.79 l 38.09,38.09 30.36,-30.36 -32.32,-32.32 c 0,0 0,0 0,0 L 779.9,840.6 c -27.97,20.97 -59.73,37.12 -94.02,47.36 v -91.22 c 49.5,-21.64 89.25,-61.38 110.89,-110.89 h 91.22 c -10.24,34.29 -26.4,66.05 -47.37,94.02 l 2.27,2.27 28.4,28.4 32.32,32.32 30.36,-30.36 -38.09,-38.09 c 16.12,-27.32 28.66,-57.03 36.77,-88.54 z"
   id="path1" />&#10;			<path
   class="st0"
   d="m 433.7,642.93 h -5.44 -38.63 -87.05 -43.28 -45.7 v 42.93 h 53.76 c 8.11,31.51 20.64,61.23 36.79,88.56 l -38.09,38.09 30.36,30.36 32.32,-32.32 28.4,-28.4 2.26,-2.27 c -20.97,-27.97 -37.12,-59.73 -47.37,-94.02 h 91.22 c 21.64,49.5 61.38,89.25 110.89,110.89 v 91.22 c -34.29,-10.24 -66.04,-26.4 -94.02,-47.36 l -2.27,2.26 -28.4,28.4 -32.32,32.32 30.36,30.36 38.09,-38.09 c 27.33,16.15 57.05,28.68 88.56,36.79 v 53.76 h 42.93 v -45.7 -43.28 -87.05 -38.63 -5.43 C 496.81,750.73 449.27,703.19 433.7,642.93 Z"
   id="path2" />&#10;			<path
   class="st0"
   d="m 766.3,557.07 h 44.07 c 0,0 0,0 0,0 h 87.05 c 0,0 0,0 0,0 h 43.28 v 0 h 45.7 V 514.14 H 932.64 C 924.53,482.63 912,452.91 895.85,425.59 l 38.09,-38.09 -30.36,-30.36 v 0 l -32.32,32.32 -28.4,28.4 -2.26,2.27 c 20.97,27.97 37.12,59.73 47.36,94.02 H 796.74 C 775.1,464.65 735.36,424.9 685.85,403.26 v -91.21 c 34.29,10.24 66.04,26.4 94.02,47.36 l 2.27,-2.26 28.4,-28.4 32.32,-32.32 v 0 L 812.5,266.07 774.41,304.16 C 747.08,288.01 717.36,275.48 685.85,267.37 V 213.6 h -42.93 v 45.7 43.28 87.05 38.63 5.43 c 60.27,15.58 107.81,63.12 123.38,123.38 z"
   id="path3" />&#10;			<path
   class="st0"
   d="m 685.87,600 c 0,-47.42 -38.44,-85.87 -85.87,-85.87 -47.43,0 -85.87,38.44 -85.87,85.87 0,47.43 38.44,85.87 85.87,85.87 47.43,0 85.87,-38.45 85.87,-85.87 z M 600,642.93 c -23.67,0 -42.93,-19.26 -42.93,-42.93 0,-23.67 19.26,-42.93 42.93,-42.93 23.67,0 42.93,19.26 42.93,42.93 0,23.67 -19.26,42.93 -42.93,42.93 z"
   id="path4" />&#10;			<rect
   x="514.13"
   y="127.73"
   class="st0"
   width="42.93"
   height="42.93"
   id="rect4" />&#10;			<rect
   x="642.92999"
   y="127.73"
   class="st0"
   width="42.93"
   height="42.93"
   id="rect5" />&#10;			<rect
   x="514.13"
   y="1029.33"
   class="st0"
   width="42.93"
   height="42.93"
   id="rect6" />&#10;			<rect
   x="642.92999"
   y="1029.33"
   class="st0"
   width="42.93"
   height="42.93"
   id="rect7" />&#10;			<rect
   x="127.73"
   y="642.92999"
   class="st0"
   width="42.93"
   height="42.93"
   id="rect8" />&#10;			<rect
   x="127.73"
   y="514.13"
   class="st0"
   width="42.93"
   height="42.93"
   id="rect9" />&#10;			<rect
   x="1029.33"
   y="642.92999"
   class="st0"
   width="42.93"
   height="42.93"
   id="rect10" />&#10;			<rect
   x="1029.33"
   y="514.13"
   class="st0"
   width="42.93"
   height="42.93"
   id="rect11" />&#10;			&#10;				<rect
   x="851.76001"
   y="214.23"
   transform="matrix(0.7071,-0.7071,0.7071,0.7071,89.099,686.4991)"
   class="st0"
   width="42.93"
   height="42.93"
   id="rect12" />&#10;			&#10;				<rect
   x="942.84003"
   y="305.31"
   transform="matrix(0.7071,-0.7071,0.7071,0.7071,51.3744,777.5743)"
   class="st0"
   width="42.93"
   height="42.93"
   id="rect13" />&#10;			&#10;				<rect
   x="214.23"
   y="851.76001"
   transform="matrix(0.7071,-0.7071,0.7071,0.7071,-548.4305,422.4254)"
   class="st0"
   width="42.93"
   height="42.93"
   id="rect14" />&#10;			&#10;				<rect
   x="305.31"
   y="942.84003"
   transform="matrix(0.7071,-0.7071,0.7071,0.7071,-586.1554,513.5012)"
   class="st0"
   width="42.93"
   height="42.93"
   id="rect15" />&#10;			&#10;				<rect
   x="214.23"
   y="305.31"
   transform="matrix(0.7071,-0.7071,0.7071,0.7071,-162.0289,262.365)"
   class="st0"
   width="42.93"
   height="42.93"
   id="rect16" />&#10;			<path
   class="st0"
   d="m 304.14,425.58 c -16.15,27.33 -28.68,57.05 -36.79,88.55 H 213.6 v 42.93 h 45.7 v 0 h 43.28 c 0,0 0,0 0,0 h 87.05 c 0,0 0,0 0,0 h 44.07 c 15.57,-60.26 63.11,-107.8 123.37,-123.37 v -5.43 -38.63 -87.05 -43.28 -45.7 h -42.93 v 53.76 c -31.51,8.11 -61.23,20.64 -88.56,36.79 l -38.09,-38.09 -30.36,30.36 32.32,32.32 28.4,28.4 2.26,2.26 c 27.97,-20.97 59.73,-37.12 94.02,-47.36 v 91.21 c -49.5,21.64 -89.25,61.38 -110.89,110.89 h -91.22 c 10.24,-34.29 26.4,-66.04 47.36,-94.02 l -30.66,-30.66 c 0,0 0,0 0,0 L 296.4,357.14 266.04,387.5 Z"
   id="path16" />&#10;			&#10;				<rect
   x="305.31"
   y="214.23"
   transform="matrix(0.7071,-0.7071,0.7071,0.7071,-70.9539,300.0973)"
   class="st0"
   width="42.93"
   height="42.93"
   id="rect17" />&#10;			&#10;				<rect
   x="851.76001"
   y="942.84003"
   transform="matrix(0.7071,-0.7071,0.7071,0.7071,-426.1024,899.8771)"
   class="st0"
   width="42.93"
   height="42.93"
   id="rect18" />&#10;			&#10;				<rect
   x="942.84003"
   y="851.76001"
   transform="matrix(0.7071,-0.7071,0.7071,0.7071,-335.0287,937.6021)"
   class="st0"
   width="42.93"
   height="42.93"
   id="rect19" />&#10;		</g>&#10;	</g>&#10;</g>&#10;</svg>
