<svg version="1.1" id="Layer_1" xmlns="http://www.w3.org/2000/svg" xmlns:xlink="http://www.w3.org/1999/xlink" x="0px" y="0px"
	 width="100%" viewBox="0 0 512 512" enable-background="new 0 0 512 512" xml:space="preserve">
<path fill="#27ae60" opacity="1.000000" stroke="none" 
	d="
M1.000003,476.000000 
	C1.000000,329.975922 1.000000,183.951843 1.267029,37.803810 
	C1.917616,37.363693 2.509880,37.122692 2.654680,36.720566 
	C8.717755,19.882736 19.690960,8.087670 37.157986,2.853688 
	C37.585430,2.725605 37.725761,1.639357 38.000000,1.000000 
	C183.690750,1.000000 329.381500,1.000000 475.195343,1.276649 
	C475.780670,2.002577 476.168823,2.703935 476.715790,2.864583 
	C494.211884,8.003172 505.163788,19.740862 511.068787,36.665943 
	C511.276947,37.262592 512.336975,37.562031 513.000000,37.999992 
	C513.000000,183.690750 513.000000,329.381500 512.723389,475.195374 
	C511.997437,475.780853 511.304321,476.167603 511.134247,476.716492 
	C505.779114,493.997131 494.352875,505.255219 477.334808,511.069031 
	C476.739471,511.272461 476.438263,512.336853 476.000000,513.000000 
	C330.309265,513.000000 184.618515,513.000000 38.804585,512.723267 
	C38.359360,512.068115 38.105747,511.465881 37.705448,511.343506 
	C20.038586,505.942871 8.343531,494.553955 2.854166,476.841003 
	C2.720744,476.410461 1.639295,476.273743 1.000003,476.000000 
M107.103355,268.581421 
	C107.547119,278.057007 107.283981,287.628845 108.558540,296.991333 
	C113.730576,334.983307 130.241852,367.571564 156.465836,395.430817 
	C200.040619,441.722931 256.519379,454.224762 315.098022,429.828186 
	C341.299194,418.916016 363.216431,401.498871 383.326080,381.799957 
	C391.718903,373.578552 399.496887,364.729492 407.738800,355.969849 
	C400.542267,349.973602 394.082123,344.590881 387.761383,339.324371 
	C386.979279,339.832703 386.671082,339.981812 386.425934,340.201294 
	C385.434265,341.089172 384.473633,342.011719 383.480865,342.898315 
	C353.364807,369.794098 319.618744,386.823608 277.736755,384.235077 
	C234.286530,381.549591 202.348618,361.424805 181.701263,323.384613 
	C170.535141,302.812378 166.323166,280.262573 164.626709,257.172424 
	C161.800491,218.705078 170.027557,182.902954 192.073975,151.021362 
	C209.315491,126.088181 232.225708,109.981255 263.918213,109.626839 
	C277.639069,109.473404 291.297638,110.131737 304.267548,115.095230 
	C316.061188,119.608589 325.751434,126.806046 332.331604,137.991394 
	C338.246857,148.046417 344.503876,157.957001 355.155182,163.927444 
	C368.464050,171.387573 380.207672,168.243179 387.874176,155.133682 
	C400.954407,132.766907 393.231995,105.904587 369.401520,91.552483 
	C347.422211,78.315262 323.100037,72.966423 297.857117,72.357254 
	C245.743607,71.099632 201.400024,90.102745 165.029236,126.906570 
	C126.668488,165.724030 109.495567,213.738846 107.103355,268.581421 
z"/>
<path fill="#000000" opacity="1.000000" stroke="none" 
	d="
M476.468628,513.000000 
	C476.438263,512.336853 476.739471,511.272461 477.334808,511.069031 
	C494.352875,505.255219 505.779114,493.997131 511.134247,476.716492 
	C511.304321,476.167603 511.997437,475.780853 512.723389,475.659271 
	C513.000000,488.259949 513.000000,500.519897 513.000000,513.000000 
	C500.980011,513.000000 488.958649,513.000000 476.468628,513.000000 
z"/>
<path fill="#000000" opacity="1.000000" stroke="none" 
	d="
M513.000000,37.531334 
	C512.336975,37.562031 511.276947,37.262592 511.068787,36.665943 
	C505.163788,19.740862 494.211884,8.003172 476.715790,2.864583 
	C476.168823,2.703935 475.780670,2.002577 475.659241,1.276649 
	C488.259949,1.000000 500.519897,1.000000 513.000000,1.000000 
	C513.000000,13.020000 513.000000,25.041342 513.000000,37.531334 
z"/>
<path fill="#000000" opacity="1.000000" stroke="none" 
	d="
M1.000003,476.468658 
	C1.639295,476.273743 2.720744,476.410461 2.854166,476.841003 
	C8.343531,494.553955 20.038586,505.942871 37.705448,511.343506 
	C38.105747,511.465881 38.359360,512.068115 38.340698,512.723267 
	C25.740049,513.000000 13.480098,513.000000 1.000000,513.000000 
	C1.000000,500.980011 1.000000,488.958649 1.000003,476.468658 
z"/>
<path fill="#000000" opacity="1.000000" stroke="none" 
	d="
M37.531342,1.000000 
	C37.725761,1.639357 37.585430,2.725605 37.157986,2.853688 
	C19.690960,8.087670 8.717755,19.882736 2.654680,36.720566 
	C2.509880,37.122692 1.917616,37.363693 1.267029,37.339924 
	C1.000000,25.072384 1.000000,13.144766 1.000000,1.000000 
	C13.020023,1.000000 25.041353,1.000000 37.531342,1.000000 
z"/>
<path fill="#010100" opacity="1.000000" stroke="none" 
	d="
M107.110870,268.095123 
	C109.495567,213.738846 126.668488,165.724030 165.029236,126.906570 
	C201.400024,90.102745 245.743607,71.099632 297.857117,72.357254 
	C323.100037,72.966423 347.422211,78.315262 369.401520,91.552483 
	C393.231995,105.904587 400.954407,132.766907 387.874176,155.133682 
	C380.207672,168.243179 368.464050,171.387573 355.155182,163.927444 
	C344.503876,157.957001 338.246857,148.046417 332.331604,137.991394 
	C325.751434,126.806046 316.061188,119.608589 304.267548,115.095230 
	C291.297638,110.131737 277.639069,109.473404 263.918213,109.626839 
	C232.225708,109.981255 209.315491,126.088181 192.073975,151.021362 
	C170.027557,182.902954 161.800491,218.705078 164.626709,257.172424 
	C166.323166,280.262573 170.535141,302.812378 181.701263,323.384613 
	C202.348618,361.424805 234.286530,381.549591 277.736755,384.235077 
	C319.618744,386.823608 353.364807,369.794098 383.480865,342.898315 
	C384.473633,342.011719 385.434265,341.089172 386.425934,340.201294 
	C386.671082,339.981812 386.979279,339.832703 387.761383,339.324371 
	C394.082123,344.590881 400.542267,349.973602 407.738800,355.969849 
	C399.496887,364.729492 391.718903,373.578552 383.326080,381.799957 
	C363.216431,401.498871 341.299194,418.916016 315.098022,429.828186 
	C256.519379,454.224762 200.040619,441.722931 156.465836,395.430817 
	C130.241852,367.571564 113.730576,334.983307 108.558540,296.991333 
	C107.283981,287.628845 107.547119,278.057007 107.110870,268.095123 
z"/>
</svg>